<svg width="379" height="268" viewBox="0 0 379 268" fill="none" xmlns="http://www.w3.org/2000/svg">
<path d="M359.441 116.067V23.1026C359.441 10.364 349.027 0 336.226 0H42.7738C29.9735 0 19.5593 10.364 19.5593 23.1026V116.068C8.50076 117.742 0 127.267 0 138.733V196.274C0 200.292 3.2732 203.549 7.3106 203.549H15.1427V239.441C15.1427 243.459 18.4159 246.716 22.4533 246.716H35.6504V260.725C35.6504 264.743 38.9236 268 42.961 268C46.9984 268 50.2716 264.743 50.2716 260.725V246.716H328.729V260.725C328.729 264.743 332.002 268 336.04 268C340.078 268 343.351 264.743 343.351 260.725V246.716H356.548C360.586 246.716 363.858 243.459 363.858 239.441V203.549H371.689C375.728 203.549 379 200.292 379 196.274V138.733C379 127.267 370.499 117.741 359.441 116.067ZM34.1795 23.1026C34.1795 18.3872 38.0346 14.5507 42.7729 14.5507H336.225C340.963 14.5507 344.819 18.3872 344.819 23.1026V115.806H319.149C324.256 110.334 329.452 104.58 334.832 98.4226C337.225 95.6842 337.224 91.61 334.831 88.8726C313.681 64.6816 295.973 47.0588 271.672 26.0176C268.921 23.6351 264.826 23.6351 262.074 26.0176C237.772 47.0598 220.065 64.6826 198.916 88.8726C196.523 91.61 196.522 95.6842 198.915 98.4226C204.296 104.58 209.491 110.335 214.598 115.806H164.396C169.504 110.334 174.7 104.58 180.081 98.4226C182.474 95.6842 182.474 91.61 180.08 88.8726C158.932 64.6855 141.224 47.0627 116.92 26.0176C114.169 23.6351 110.074 23.6351 107.323 26.0176C83.0182 47.0627 65.31 64.6855 44.1628 88.8726C41.7689 91.61 41.7689 95.6842 44.1619 98.4226C49.5434 104.58 54.7388 110.334 59.8465 115.806H34.1795V23.1026ZM234.771 115.806C228.044 108.934 221.249 101.633 214.155 93.6481C231.631 73.9688 247.104 58.5703 266.874 41.1823C286.644 58.5693 302.117 73.9688 319.594 93.6481C312.501 101.633 305.705 108.934 298.978 115.806H234.771ZM80.0199 115.806C73.2931 108.933 66.4972 101.633 59.403 93.6481C76.8763 73.9727 92.3524 58.5713 112.123 41.1823C131.894 58.5713 147.37 73.9727 164.843 93.6481C157.75 101.633 150.954 108.933 144.226 115.806H80.0199ZM349.237 232.166H29.7639V203.549H349.237V232.166ZM364.379 188.999H14.6212V138.733C14.6212 134.114 18.3974 130.357 23.0391 130.357H355.961C360.603 130.357 364.379 134.114 364.379 138.733V188.999V188.999Z" fill="#AF9A7D"/>
</svg>

